<svg xmlns="http://www.w3.org/2000/svg" viewBox="0 0 240 240" role="img" aria-label="default avatar 06">
  <rect width="240" height="240" rx="120" fill="#7b506f"/>
  <circle cx="58" cy="54" r="26" fill="#fff7ed" opacity=".22"/>
  <circle cx="188" cy="44" r="18" fill="#fff7ed" opacity=".18"/>
  <circle cx="195" cy="185" r="34" fill="#fff7ed" opacity=".12"/>
  <path d="M60 71c-20 0-35 13-43 35h86c-8-22-23-35-43-35z" fill="#5f8dd3"/>
  <path d="M58 90c0 28 20 50 45 50h34c25 0 45-22 45-50V76c0-31-25-56-62-56S58 45 58 76v14z" fill="#f0c0a4"/>
  <path d="M33 53c4-20 18-32 35-30 13 2 23 12 24 27-16-8-28-8-40-4-7 2-13 5-19 7z" fill="#4a2c2a"/>
  <circle cx="94" cy="91" r="5" fill="#1f2933"/>
  <circle cx="146" cy="91" r="5" fill="#1f2933"/>
  <path d="M111 112c7 6 18 6 25 0" fill="none" stroke="#7a4a39" stroke-width="6" stroke-linecap="round"/>
  <path d="M80 80c9-6 20-7 30-3" fill="none" stroke="#4a2c2a" stroke-width="6" stroke-linecap="round" opacity=".75"/>
  <path d="M132 77c10-4 21-3 30 3" fill="none" stroke="#4a2c2a" stroke-width="6" stroke-linecap="round" opacity=".75"/>
  <path d="M83 154c20 17 55 17 76 0" fill="none" stroke="#fff7ed" stroke-width="9" stroke-linecap="round" opacity=".55"/>
</svg>
