<svg xmlns="http://www.w3.org/2000/svg" viewBox="0 0 240 240" role="img" aria-label="default avatar 09">
  <rect width="240" height="240" rx="120" fill="#3d405b"/>
  <circle cx="58" cy="54" r="26" fill="#f2cc8f" opacity=".22"/>
  <circle cx="188" cy="44" r="18" fill="#f2cc8f" opacity=".18"/>
  <circle cx="195" cy="185" r="34" fill="#f2cc8f" opacity=".12"/>
  <path d="M60 70c-22 0-38 13-45 36h90c-7-23-23-36-45-36z" fill="#81b29a"/>
  <path d="M58 90c0 28 20 50 45 50h34c25 0 45-22 45-50V76c0-31-25-56-62-56S58 45 58 76v14z" fill="#efbd9f"/>
  <path d="M31 55c1-23 15-37 34-35 16 2 27 15 24 34-9-11-21-16-36-14-8 1-15 5-22 15z" fill="#1b1b2f"/>
  <circle cx="94" cy="91" r="5" fill="#1f2933"/>
  <circle cx="146" cy="91" r="5" fill="#1f2933"/>
  <path d="M111 112c7 6 18 6 25 0" fill="none" stroke="#7a4a39" stroke-width="6" stroke-linecap="round"/>
  <path d="M80 80c9-6 20-7 30-3" fill="none" stroke="#1b1b2f" stroke-width="6" stroke-linecap="round" opacity=".75"/>
  <path d="M132 77c10-4 21-3 30 3" fill="none" stroke="#1b1b2f" stroke-width="6" stroke-linecap="round" opacity=".75"/>
  <path d="M83 154c20 17 55 17 76 0" fill="none" stroke="#f2cc8f" stroke-width="9" stroke-linecap="round" opacity=".55"/>
</svg>
